<svg width="28" height="21" viewBox="0 0 28 21" fill="none" xmlns="http://www.w3.org/2000/svg">
<path fill-rule="evenodd" clip-rule="evenodd" d="M5.83333 9.33333V10.5H15.1667V2.33333H3.5V1.16667C3.5 0.522667 4.02267 0 4.66667 0H16.3333C16.9773 0 17.5 0.522667 17.5 1.16667V3.5H22.9448C24.248 3.5 24.8115 4.172 25.2035 4.7915C25.8965 5.88817 26.9955 7.62883 27.664 8.7325C27.8833 9.0965 28 9.51417 28 9.94V15.1667C28 16.4372 27.1332 17.5 25.6667 17.5H24.5C24.5 19.432 22.932 21 21 21C19.068 21 17.5 19.432 17.5 17.5H12.8333C12.8333 19.432 11.2653 21 9.33333 21C7.40133 21 5.83333 19.432 5.83333 17.5H4.66667C4.02267 17.5 3.5 16.9773 3.5 16.3333V9.33333H1.16667V7H9.33333V9.33333H5.83333ZM9.33333 16.1C10.1057 16.1 10.7333 16.7277 10.7333 17.5C10.7333 18.2723 10.1057 18.9 9.33333 18.9C8.561 18.9 7.93333 18.2723 7.93333 17.5C7.93333 16.7277 8.561 16.1 9.33333 16.1ZM21 16.1C21.7723 16.1 22.4 16.7277 22.4 17.5C22.4 18.2723 21.7723 18.9 21 18.9C20.2277 18.9 19.6 18.2723 19.6 17.5C19.6 16.7277 20.2277 16.1 21 16.1ZM17.5 12.8333H5.83333V15.1667H6.72583C7.36633 14.4503 8.29733 14 9.33333 14C10.3693 14 11.3003 14.4503 11.9408 15.1667H18.3925C19.033 14.4503 19.964 14 21 14C22.036 14 22.967 14.4503 23.6075 15.1667H25.6667V9.82917L23.6705 6.412C23.4617 6.05383 23.0778 5.83333 22.6637 5.83333H17.5V12.8333ZM18.6667 7V10.5H24.5L22.8352 7.588C22.6275 7.224 22.2413 7 21.8225 7H18.6667ZM0 3.5H9.33333V5.83333H0V3.5Z" fill="black"/>
</svg>
