<svg width="24" height="24" viewBox="0 0 24 24" fill="none" xmlns="http://www.w3.org/2000/svg">
<g clip-path="url(#clip0_113_33)">
<path d="M6.28 3.18182C9.516 3.18291 11.253 6.99018 12 8.67018C12.75 6.98255 14.469 3.19273 17.726 3.19273C19.784 3.19273 22 4.62073 22 7.75491C22 11.5098 17.256 16.3196 12 21.9367C6.742 16.3175 2 11.5087 2 7.75491C2 4.83564 3.965 3.18073 6.28 3.18182ZM6.281 1C3.098 1 0 3.38582 0 7.75491C0 12.8396 5.57 18.0389 12 25C18.43 18.0389 24 12.8396 24 7.75491C24 3.37927 20.903 1.01091 17.726 1.01091C15.522 1.01091 13.28 2.14764 12 4.54327C10.715 2.13673 8.478 1 6.281 1Z" fill="black"/>
</g>
<defs>
<clipPath id="clip0_113_33">
<rect width="24" height="24" fill="white"/>
</clipPath>
</defs>
</svg>
