<svg width="28" height="28" viewBox="0 0 28 28" fill="none" xmlns="http://www.w3.org/2000/svg">
<rect width="28" height="28" fill="#F5F5F5"/>
<g id="Szczeg&#195;&#179;&#197;&#130;y produktu">
<rect width="1920" height="1472.99" transform="translate(-989.19 -441)" fill="white"/>
<g id="div._mainContent_cehn8_1">
<g id="div._flexContainer_2nrx2_1">
<g id="div._blockContainer_11h7y_1">
<g id="div._flexContainer_2nrx2_1_2">
<g id="div._productSummaryContainer_14vmq_1">
<g id="div._deliveryInfo_14vmq_37">
<g id="div">
<g id="return-38ee15e2.svg">
<g id="return-38ee15e2.svg_2" clip-path="url(#clip0_0_1)">
<path id="return" d="M14 0C10.1383 0 6.6605 1.5785 4.13117 4.109L1.23783 1.21567L0 9.78017L8.6765 8.65317L5.77267 5.7505C7.882 3.64117 10.7882 2.33333 14 2.33333C20.433 2.33333 25.6667 7.567 25.6667 14C25.6667 20.433 20.433 25.6667 14 25.6667C9.48267 25.6667 5.56617 23.0813 3.62833 19.3165L1.62517 20.5368C3.9725 24.9737 8.631 28 14 28C21.7315 28 28 21.7315 28 14C28 6.2685 21.7315 0 14 0Z" fill="black"/>
</g>
</g>
</g>
</g>
</g>
</g>
</g>
</g>
</g>
</g>
<defs>
<clipPath id="clip0_0_1">
<rect width="28" height="28" fill="white"/>
</clipPath>
</defs>
</svg>
